<?xml version="1.0" encoding="utf-8"?>
<!-- Generator: Adobe Illustrator 19.0.0, SVG Export Plug-In . SVG Version: 6.00 Build 0)  -->
<svg version="1.1" id="Layer_1" xmlns="http://www.w3.org/2000/svg" xmlns:xlink="http://www.w3.org/1999/xlink" x="0px" y="0px"
	 viewBox="-85 87 128 128" style="enable-background:new -85 87 128 128;" xml:space="preserve">
<style type="text/css">
	.st0{fill:#333333;}
</style>
<path class="st0" d="M-21,204c-29.2,0-53-23.8-53-53s23.8-53,53-53s53,23.8,53,53S8.2,204-21,204z M-21,104c-25.9,0-47,21.1-47,47
	s21.1,47,47,47s47-21.1,47-47S4.9,104-21,104z"/>
<path class="st0" d="M1.6,139.6l-45-1.2c-1.7,0-3-1.4-2.9-3.1c0-1.7,1.4-3,3.1-2.9l45,1.2c1.7,0,3,1.4,2.9,3.1
	C4.7,138.4,3.3,139.7,1.6,139.6z M1.2,154.6l-45-1.2c-1.7,0-3-1.4-2.9-3.1c0-1.7,1.4-3,3.1-2.9l45,1.2c1.7,0,3,1.4,2.9,3.1
	C4.2,153.4,2.9,154.7,1.2,154.6z"/>
<g>
	<path class="st0" d="M1.5,169h-45c-1.7,0-3-1.3-3-3s1.3-3,3-3h45c1.7,0,3,1.3,3,3S3.2,169,1.5,169z"/>
</g>
</svg>
