<?xml version="1.0" encoding="utf-8"?>
<!-- Generator: Adobe Illustrator 19.0.0, SVG Export Plug-In . SVG Version: 6.00 Build 0)  -->
<svg version="1.1" id="Capa_1" xmlns="http://www.w3.org/2000/svg" xmlns:xlink="http://www.w3.org/1999/xlink" x="0px" y="0px"
	 viewBox="42 -43 385 385" style="enable-background:new 42 -43 385 385;" xml:space="preserve">
<style type="text/css">
	.st0{fill:#FFFFFF;}
</style>
<g>
	<g id="Menu_1_">
		<path class="st0" d="M54,77.3h360.9c6.6,0,12-5.4,12-12c0-6.6-5.4-12-12-12H54c-6.6,0-12,5.4-12,12S47.4,77.3,54,77.3z"/>
		<path class="st0" d="M414.9,137.5H54c-6.6,0-12,5.4-12,12s5.4,12,12,12h360.9c6.6,0,12-5.4,12-12S421.6,137.5,414.9,137.5z"/>
		<path class="st0" d="M414.9,221.7H174.3c-6.6,0-12,5.4-12,12c0,6.6,5.4,12,12,12h240.6c6.6,0,12-5.4,12-12
			C427,227.1,421.6,221.7,414.9,221.7z"/>
	</g>
</g>
</svg>
